<?xml version="1.0" encoding="iso-8859-1"?>
<!-- Generator: Adobe Illustrator 18.0.0, SVG Export Plug-In . SVG Version: 6.00 Build 0)  -->
<!DOCTYPE svg PUBLIC "-//W3C//DTD SVG 1.1//EN" "http://www.w3.org/Graphics/SVG/1.1/DTD/svg11.dtd">
<svg version="1.1" id="Capa_1" xmlns="http://www.w3.org/2000/svg" xmlns:xlink="http://www.w3.org/1999/xlink" x="0px" y="0px"
	 viewBox="0 0 295.676 295.676" style="enable-background:new 0 0 295.676 295.676;" xml:space="preserve">
<g>
	<path d="M284.961,22.037C284.961,9.887,275.078,0,262.928,0c-12.148,0-22.033,9.887-22.033,22.037s9.885,22.037,22.033,22.037
		C275.078,44.074,284.961,34.188,284.961,22.037z M251.9,22.037c0-6.082,4.947-11.031,11.027-11.031
		c6.08,0,11.027,4.949,11.027,11.031c0,6.082-4.947,11.031-11.027,11.031C256.848,33.068,251.9,28.119,251.9,22.037z"/>
	<path d="M271.383,47.621h-16.773c-11.857,0-21.504,9.644-21.504,21.5v9.178c0,3.039,2.465,5.504,5.504,5.504
		c3.039,0,5.502-2.465,5.502-5.504v-9.178c0-5.787,4.709-10.494,10.498-10.494h16.773c5.787,0,10.496,4.707,10.496,10.494v9.178
		c0,3.039,2.465,5.504,5.504,5.504c3.039,0,5.502-2.465,5.502-5.504v-9.178C292.885,57.266,283.24,47.621,271.383,47.621z"/>
	<path d="M284.961,127.977c0-12.152-9.883-22.037-22.033-22.037c-12.148,0-22.033,9.885-22.033,22.037
		c0,12.15,9.885,22.037,22.033,22.037C275.078,150.014,284.961,140.127,284.961,127.977z M251.9,127.977
		c0-6.084,4.947-11.031,11.027-11.031c6.08,0,11.027,4.947,11.027,11.031c0,6.082-4.947,11.031-11.027,11.031
		C256.848,139.008,251.9,134.059,251.9,127.977z"/>
	<path d="M271.383,153.557h-16.773c-11.857,0-21.504,9.646-21.504,21.502v9.18c0,3.039,2.465,5.504,5.504,5.504
		c3.039,0,5.502-2.465,5.502-5.504v-9.18c0-5.787,4.709-10.496,10.498-10.496h16.773c5.787,0,10.496,4.709,10.496,10.496v9.18
		c0,3.039,2.465,5.504,5.504,5.504c3.039,0,5.502-2.465,5.502-5.504v-9.18C292.885,163.203,283.24,153.557,271.383,153.557z"/>
	<path d="M284.961,233.912c0-12.152-9.883-22.037-22.033-22.037c-12.148,0-22.033,9.885-22.033,22.037
		c0,12.15,9.885,22.035,22.033,22.035C275.078,255.947,284.961,246.063,284.961,233.912z M251.9,233.912
		c0-6.082,4.947-11.031,11.027-11.031c6.08,0,11.027,4.949,11.027,11.031c0,6.082-4.947,11.029-11.027,11.029
		C256.848,244.941,251.9,239.994,251.9,233.912z"/>
	<path d="M271.383,259.494h-16.773c-11.857,0-21.504,9.645-21.504,21.5v9.18c0,3.039,2.465,5.502,5.504,5.502
		c3.039,0,5.502-2.463,5.502-5.502v-9.18c0-5.785,4.709-10.494,10.498-10.494h16.773c5.787,0,10.496,4.709,10.496,10.494v9.18
		c0,3.039,2.465,5.502,5.504,5.502c3.039,0,5.502-2.463,5.502-5.502v-9.18C292.885,269.139,283.24,259.494,271.383,259.494z"/>
	<path d="M13.856,119.615c0,15.99,13.008,29,28.996,29c15.986,0,28.992-13.01,28.992-29c0-15.992-13.006-29.002-28.992-29.002
		C26.863,90.613,13.856,103.623,13.856,119.615z M60.838,119.615c0,9.922-8.068,17.994-17.986,17.994
		c-9.92,0-17.99-8.072-17.99-17.994c0-9.924,8.07-17.996,17.99-17.996C52.77,101.619,60.838,109.691,60.838,119.615z"/>
	<path d="M8.295,205.068c3.039,0,5.502-2.465,5.502-5.504V186.52c0-9.5,7.73-17.229,17.232-17.229h23.832
		c9.502,0,17.233,7.729,17.233,17.229v13.045c0,3.039,2.465,5.504,5.504,5.504c3.039,0,5.502-2.465,5.502-5.504V186.52
		c0-15.568-12.666-28.234-28.238-28.234H31.029c-15.57,0-28.238,12.666-28.238,28.234v13.045
		C2.791,202.604,5.256,205.068,8.295,205.068z"/>
	<path d="M222.35,47.402c3.039,0,5.504-2.463,5.504-5.502c0-3.039-2.465-5.504-5.504-5.504h-78.918
		c-3.039,0-5.502,2.465-5.502,5.504v100.436H93.855c-3.039,0-5.502,2.463-5.502,5.502c0,3.039,2.463,5.504,5.502,5.504h44.074
		v100.432c0,3.039,2.463,5.504,5.502,5.504h78.918c3.039,0,5.504-2.465,5.504-5.504c0-3.039-2.465-5.502-5.504-5.502h-73.414v-94.93
		h73.414c3.039,0,5.504-2.465,5.504-5.504c0-3.039-2.465-5.502-5.504-5.502h-73.414V47.402H222.35z"/>
</g>
<g>
</g>
<g>
</g>
<g>
</g>
<g>
</g>
<g>
</g>
<g>
</g>
<g>
</g>
<g>
</g>
<g>
</g>
<g>
</g>
<g>
</g>
<g>
</g>
<g>
</g>
<g>
</g>
<g>
</g>
</svg>
