<svg height="489pt" viewBox="0 -2 489.96021 489" width="489pt" xmlns="http://www.w3.org/2000/svg"><path d="m357.164062 116.6875c0-61.910156-50.226562-112.097656-112.183593-112.097656s-112.183594 50.1875-112.183594 112.097656 50.226563 112.101562 112.183594 112.101562 112.183593-50.191406 112.183593-112.101562zm0 0" fill="#f9cfcf"/><g fill="#f9a7a7"><path d="m244.980469 232.851562c-64.066407 0-116.1875-52.109374-116.1875-116.15625 0-64.046874 52.121093-116.152343 116.1875-116.152343 64.0625 0 116.183593 52.105469 116.183593 116.152343 0 64.046876-52.121093 116.15625-116.183593 116.15625zm0-224.308593c-59.65625 0-108.1875 48.519531-108.1875 108.152343 0 59.636719 48.53125 108.15625 108.1875 108.15625 59.652343 0 108.183593-48.519531 108.183593-108.15625 0-59.632812-48.53125-108.152343-108.183593-108.152343zm0 0"/><path d="m244.980469 232.789062c-36.929688 0-66.96875-52.082031-66.96875-116.101562s30.039062-116.101562 66.96875-116.101562c36.925781 0 66.96875 52.082031 66.96875 116.101562s-30.042969 116.101562-66.96875 116.101562zm0-224.203124c-32.515625 0-58.96875 48.496093-58.96875 108.101562s26.453125 108.101562 58.96875 108.101562c32.511719 0 58.96875-48.496093 58.96875-108.101562s-26.453125-108.101562-58.96875-108.101562zm0 0"/><path d="m243.148438 75.847656c-31.035157 0-60.207032-12.078125-82.15625-34.003906-1.539063-1.539062-1.566407-4.027344-.058594-5.601562 22.125-23.058594 51.917968-35.761719 83.878906-35.761719 31.035156 0 60.210938 12.074219 82.15625 34 1.539062 1.542969 1.566406 4.03125.058594 5.601562-22.128906 23.0625-51.917969 35.765625-83.878906 35.765625zm-73.628907-36.894531c20.078125 18.664063 46.066407 28.894531 73.628907 28.894531 28.429687 0 55.007812-10.792968 75.292968-30.472656-20.074218-18.664062-46.0625-28.894531-73.628906-28.894531-28.429688 0-55.011719 10.792969-75.292969 30.472656zm0 0"/><path d="m245.285156 232.789062c-31.035156 0-60.210937-12.078124-82.15625-34.003906-1.539062-1.542968-1.566406-4.027344-.058594-5.601562 22.128907-23.0625 51.914063-35.761719 83.878907-35.761719 31.035156 0 60.210937 12.074219 82.15625 34.003906 1.539062 1.539063 1.566406 4.027344.054687 5.597657-22.125 23.0625-51.914062 35.765624-83.875 35.765624zm-73.628906-36.894531c20.074219 18.664063 46.066406 28.894531 73.628906 28.894531 28.429688 0 55.007813-10.789062 75.289063-30.472656-20.070313-18.664062-46.058594-28.894531-73.625-28.894531-28.429688 0-55.011719 10.789063-75.292969 30.472656zm0 0"/><path d="m357.164062 124.054688h-224.371093c-2.207031 0-4-1.792969-4-4 0-2.207032 1.792969-4 4-4h224.371093c2.210938 0 4 1.792968 4 4 0 2.207031-1.789062 4-4 4zm0 0"/></g><path d="m379.289062 265.527344c-42.402343 0-76.78125 34.375-76.78125 76.78125v45.066406h-3.734374c-6.585938 0-11.921876 5.335938-11.921876 11.921875s5.335938 11.925781 11.921876 11.925781h5.828124c6.605469 28.421875 28.910157 50.8125 57.351563 57.378906v13.382813h67.222656v-29.828125c16.453125-14.082031 26.894531-34.984375 26.894531-58.34375v-51.503906c0-42.40625-34.375-76.78125-76.78125-76.78125zm0 0" fill="#f9cfcf"/><path d="m429.171875 485.984375h-67.21875c-2.210937 0-4-1.789063-4-4v-10.265625c-27.246094-7.46875-48.945313-29.179688-56.460937-56.496094h-2.714844c-8.785156 0-15.925782-7.140625-15.925782-15.925781 0-8.691406 7-15.78125 15.660157-15.921875v-41.070312c0-44.539063 36.234375-80.78125 80.78125-80.78125 44.542969 0 80.78125 36.238281 80.78125 80.78125v51.507812c0 23-9.78125 44.820312-26.898438 60.160156v28.011719c-.003906 2.210937-1.796875 4-4.003906 4zm-63.222656-8h59.222656v-25.828125c0-1.167969.511719-2.277344 1.394531-3.039062 16.207032-13.867188 25.5-34.027344 25.5-55.304688v-51.507812c0-40.128907-32.648437-72.78125-72.78125-72.78125-40.132812 0-72.78125 32.652343-72.78125 72.78125v45.066406c0 2.210937-1.792968 4-4 4h-3.734375c-4.371093 0-7.921875 3.554687-7.921875 7.925781s3.550782 7.925781 7.921875 7.925781h5.828125c1.859375 0 3.472656 1.285156 3.894532 3.09375 6.242187 26.859375 27.578124 48.207032 54.355468 54.390625 1.8125.417969 3.101563 2.03125 3.101563 3.894531zm0 0" fill="#3762cc"/><path d="m330.582031 388c-3.910156 0-7.082031-3.167969-7.082031-7.082031v-11.800781c0-3.914063 3.171875-7.082032 7.082031-7.082032 3.910157 0 7.082031 3.167969 7.082031 7.082032v11.800781c0 3.914062-3.171874 7.082031-7.082031 7.082031zm0 0" fill="#3762cc"/><path d="m418.414062 389.609375c0 15.015625-12.167968 27.183594-27.183593 27.183594-15.011719 0-27.183594-12.167969-27.183594-27.183594 0-15.011719 12.171875-27.183594 27.183594-27.183594 15.015625 0 27.183593 12.171875 27.183593 27.183594zm0 0" fill="#f9cfcf"/><path d="m469.839844 289.550781-.003906.007813c-13.703126-20.925782-38.175782-34.871094-66.101563-34.871094-5.941406 0-10.757813 4.554688-10.757813 10.179688v2.136718c0-2.515625-.769531-4.851562-2.085937-6.800781 0 0-.367187-.753906-1.460937-1.777344-1.445313-1.460937-3.246094-2.574219-5.277344-3.191406-2.847656-1.140625-6.820313-2.082031-12.296875-2.3125v-.003906c-.011719 0-.023438 0-.035157.003906-5.6875-.238281-12.992187.292969-22.363281 2.191406-6.820312.746094-13.335937 2.484375-19.394531 5.070313-.019531.007812-.042969.011718-.066406.019531l.003906.007813c-3.441406 1.472656-6.722656 3.222656-9.839844 5.210937-1.355468.828125-2.03125 1.347656-2.035156 1.351563-17.492188 12.0625-28.933594 32.023437-28.933594 54.625v24.449218c0 1.132813.933594 2.050782 2.089844 2.050782h101.695312v73l12.261719 25.03125c.351563.707031 1.078125 1.160156 1.882813 1.160156h31.851562c3.222656 0 6.386719-.460938 9.40625-1.328125.09375-.039063 3.328125-1.402344 4.636719-3.5 3.09375-4.953125 10.382813-16.625 17.011719-27.285157 9.839844-15.824218 15.429687-33.894531 15.867187-52.433593 1.214844-50.804688-16.054687-72.992188-16.054687-72.992188zm0 0" fill="#4671c6"/><path d="m438.976562 451.089844h-31.855468c-2.308594 0-4.457032-1.335938-5.472656-3.402344l-12.261719-25.03125c-.269531-.542969-.410157-1.148438-.410157-1.757812v-69h-97.695312c-3.355469 0-6.085938-2.714844-6.085938-6.050782v-24.453125c0-23 11.4375-44.628906 30.601563-57.875.21875-.160156.976563-.714843 2.277344-1.511719 3.203125-2.042968 6.617187-3.859374 10.089843-5.363281.164063-.085937.332032-.15625.511719-.21875 6.417969-2.714843 13.199219-4.488281 20.167969-5.273437 8.746094-1.753906 16.539062-2.503906 23.148438-2.230469 5.324218.234375 9.808593 1.089844 13.496093 2.535156 2.554688.808594 4.898438 2.242188 6.789063 4.15625.050781.046875.105468.097657.15625.148438 2.707031-3.101563 6.769531-5.074219 11.300781-5.074219 28.363281 0 54.25 13.625 69.304687 36.46875 1.242188 1.625 18.070313 24.660156 16.859376 75.476562-.449219 19.023438-6.144532 37.851563-16.46875 54.453126-6.421876 10.324218-13.457032 21.597656-16.707032 26.796874l-.308594.496094c-1.902343 3.046875-5.738281 4.761719-6.488281 5.070313-.144531.0625-.289062.113281-.4375.15625-3.429687.984375-6.964843 1.484375-10.511719 1.484375zm-30.671874-8h30.671874c2.710938 0 5.421876-.375 8.054688-1.105469.988281-.457031 2.257812-1.296875 2.597656-1.84375l.304688-.492187c3.25-5.203126 10.285156-16.464844 16.703125-26.789063 9.566406-15.386719 14.847656-32.820313 15.265625-50.417969 1.113281-46.753906-13.722656-68.375-15.117188-70.296875-.105468-.121093-.207031-.253906-.296875-.390625-13.550781-20.707031-37.011719-33.066406-62.753906-33.066406-3.722656 0-6.757813 2.769531-6.757813 6.179688v2.132812c0 2.207031-1.789062 4-4 4-2.207031 0-4-1.792969-4-4 0-1.625-.484374-3.203125-1.398437-4.554688-.09375-.140624-.179687-.289062-.257813-.4375-.023437-.019531-.226562-.292968-.625-.664062-1.109374-1.121094-2.351562-1.875-3.703124-2.285156-.109376-.035156-.214844-.070313-.320313-.113282-2.90625-1.164062-6.601563-1.84375-10.980469-2.03125-.027344 0-.046875-.003906-.070312-.003906-6.019532-.242187-13.203125.46875-21.367188 2.117188-.121094.027344-.238281.042968-.359375.058594-6.296875.6875-12.429687 2.289062-18.214843 4.753906-.035157.015625-.066407.03125-.105469.042968-3.167969 1.355469-6.28125 3.007813-9.257813 4.90625-1.132812.695313-1.707031 1.117188-1.785156 1.175782-.042969.03125-.085938.0625-.132812.09375-17.035157 11.75-27.203126 30.941406-27.203126 51.335937v22.5h99.78125c2.210938 0 4 1.792969 4 4v72.074219zm0 0" fill="#3762cc"/><path d="m418.414062 389.609375c0 15.015625-12.167968 27.183594-27.183593 27.183594-15.011719 0-27.183594-12.167969-27.183594-27.183594 0-15.011719 12.171875-27.183594 27.183594-27.183594 15.015625 0 27.183593 12.171875 27.183593 27.183594zm0 0" fill="#f9cfcf"/><path d="m137.046875 482.070312v-16.34375c-4.582031.894532-9.316406 1.378907-14.160156 1.378907-19.207031 0-36.691407-7.375-49.789063-19.433594v34.398437zm0 0" fill="#f9cfcf"/><path d="m137.046875 486.070312h-63.949219c-2.210937 0-4-1.792968-4-4v-34.398437c0-1.585937.9375-3.027344 2.390625-3.664063 1.457031-.636718 3.144531-.355468 4.316407.71875 12.871093 11.851563 29.589843 18.378907 47.082031 18.378907 4.457031 0 8.960937-.4375 13.398437-1.300781 1.175782-.238282 2.386719.078124 3.304688.839843.925781.757813 1.457031 1.890625 1.457031 3.085938v16.339843c0 2.210938-1.789063 4-4 4zm-59.949219-8h55.953125v-7.636718c-20.011719 2.644531-40.03125-2.621094-55.953125-14.296875zm0 0" fill="#3762cc"/><path d="m197.234375 395.523438h-.851563c.019532-.65625.050782-1.304688.050782-1.964844v-49.335938c0-40.617187-32.925782-73.546875-73.546875-73.546875-40.617188 0-73.542969 32.929688-73.542969 73.546875v49.335938c0 40.617187 32.925781 73.546875 73.542969 73.546875 33.542969 0 61.816406-22.460938 70.660156-53.15625h3.6875c5.085937 0 9.210937-4.125 9.210937-9.214844 0-5.085937-4.125-9.210937-9.210937-9.210937zm0 0" fill="#f9cfcf"/><path d="m122.886719 471.105469c-42.757813 0-77.542969-34.789063-77.542969-77.546875v-49.335938c0-42.757812 34.785156-77.542968 77.542969-77.542968 42.757812 0 77.546875 34.789062 77.546875 77.542968v47.695313c5.742187 1.433593 10.011718 6.636719 10.011718 12.820312 0 7.285157-5.925781 13.210938-13.210937 13.210938h-.738281c-10.421875 31.445312-40.261719 53.15625-73.609375 53.15625zm0-196.425781c-38.347657 0-69.542969 31.195312-69.542969 69.542968v49.335938c0 38.347656 31.199219 69.542968 69.542969 69.542968 30.816406 0 58.292969-20.667968 66.816406-50.261718.496094-1.714844 2.0625-2.894532 3.84375-2.894532h3.6875c2.875 0 5.210937-2.335937 5.210937-5.210937s-2.335937-5.210937-5.210937-5.210937h-.851563c-1.078124 0-2.113281-.433594-2.863281-1.207032-.753906-.773437-1.164062-1.816406-1.132812-2.898437l.019531-.621094c.015625-.414063.027344-.824219.027344-1.238281v-49.335938c0-38.347656-31.199219-69.542968-69.546875-69.542968zm0 0" fill="#3762cc"/><path d="m79.820312 254.339844h33.300782c3.324218 0 6.015625 3.117187 6.015625 6.96875v3.195312c0-5.324218 4.121093-9.644531 9.203125-9.644531h15.21875c35.945312 0 65.078125 30.539063 65.078125 68.210937v14.589844c0 3.484375-2.691407 6.308594-6.015625 6.308594h-77.464844c-3.320312 0-6.015625 2.824219-6.015625 6.308594v14.753906c-.050781-.019531-.105469-.03125-.15625-.050781v56.210937c.050781-.019531.105469-.035156.15625-.054687v51.425781c0 4.90625-3.4375 8.886719-7.675781 8.886719h-51.203125c-31.074219 0-56.265625-29.171875-56.265625-65.15625v-74.15625c.003906-48.488281 33.949218-87.796875 75.824218-87.796875zm0 0" fill="#4671c6"/><path d="m111.464844 485.449219h-51.199219c-33.230469 0-60.265625-31.023438-60.265625-69.152344v-74.160156c0-50.617188 35.804688-91.796875 79.820312-91.796875h33.300782c2.816406 0 5.367187 1.28125 7.191406 3.339844 2.226562-1.769532 5.007812-2.820313 8.027344-2.820313h15.21875c38.089844 0 69.078125 32.394531 69.078125 72.210937v14.589844c0 5.6875-4.492188 10.308594-10.015625 10.308594h-77.464844c-1.113281 0-2.019531 1.039062-2.019531 2.308594v14.757812c0 .375-.050781.746094-.152344 1.097656v53.835938c.101563.378906.152344.773438.152344 1.171875v51.421875c0 7.105469-5.234375 12.886719-11.671875 12.886719zm-31.644532-227.113281c-39.601562 0-71.820312 37.59375-71.820312 83.800781v74.15625c0 33.722656 23.445312 61.15625 52.265625 61.15625h51.199219c1.992187 0 3.675781-2.238281 3.675781-4.886719v-50.296875c-.101563-.34375-.15625-.707031-.15625-1.074219v-56.210937c0-.375.054687-.746094.15625-1.097657v-13.605468c0-5.683594 4.492187-10.308594 10.019531-10.308594h77.460938c1.113281 0 2.019531-1.035156 2.019531-2.308594v-14.589844c0-35.402343-27.402344-64.210937-61.078125-64.210937h-15.21875c-2.871094 0-5.203125 2.53125-5.203125 5.644531 0 2.207032-1.792969 4-4 4s-4-1.792968-4-4v-3.195312c0-1.75-1.0625-2.96875-2.019531-2.96875h-33.300782zm0 0" fill="#3762cc"/><path d="m143.195312 393.464844c0 14.378906-11.65625 26.039062-26.039062 26.039062-14.378906 0-26.035156-11.660156-26.035156-26.039062 0-14.382813 11.65625-26.039063 26.035156-26.039063 14.382812 0 26.039062 11.65625 26.039062 26.039063zm0 0" fill="#f9cfcf"/><path d="m173.476562 387.867188c3.710938 0 6.71875-3.007813 6.71875-6.71875v-11.195313c0-3.710937-3.007812-6.71875-6.71875-6.71875-3.710937 0-6.71875 3.007813-6.71875 6.71875v11.195313c0 3.714843 3.007813 6.71875 6.71875 6.71875zm0 0" fill="#3762cc"/><path d="m351.957031 273.476562-19.234375-14.105468c-2.644531-1.9375-6.367187-.050782-6.367187 3.226562v4.425782h-161.183594c-2.210937 0-4 1.789062-4 4v11.359374c0 2.210938 1.789063 4 4 4h161.1875v4.425782c0 3.277344 3.722656 5.164062 6.363281 3.226562l19.238282-14.105468c2.175781-1.597657 2.175781-4.855469-.003907-6.453126zm0 0" fill="#a4c9ff"/><path d="m134.242188 314.039062 19.234374 14.105469c2.644532 1.941407 6.367188.050781 6.367188-3.222656v-4.429687h161.1875c2.207031 0 4-1.789063 4-4v-11.359376c0-2.207031-1.792969-4-4-4h-161.1875v-4.425781c0-3.277343-3.726562-5.164062-6.367188-3.226562l-19.238281 14.105469c-2.175781 1.601562-2.175781 4.859374.003907 6.453124zm0 0" fill="#6bdddd"/><path d="m141.867188 88.5625h-121.414063c-8.425781 0-15.253906 6.832031-15.253906 15.253906v94.40625c0 8.425782 6.828125 15.253906 15.253906 15.253906h37.074219l18.6875 26.058594c2.523437 3.519532 7.371094 3.519532 9.890625 0l18.6875-26.058594h37.074219c8.425781 0 15.253906-6.828124 15.253906-15.253906v-94.40625c0-8.421875-6.832032-15.253906-15.253906-15.253906zm0 0" fill="#a4c9ff"/><path d="m81.160156 246.171875c-3.246094 0-6.234375-1.570313-8.199218-4.308594l-17.488282-24.386719h-35.023437c-10.613281 0-19.25-8.632812-19.25-19.253906v-94.40625c0-10.617187 8.636719-19.253906 19.25-19.253906h121.417969c10.617187 0 19.253906 8.636719 19.253906 19.253906v94.40625c0 10.621094-8.636719 19.253906-19.253906 19.253906h-35.019532l-17.492187 24.386719c-1.964844 2.738281-4.953125 4.308594-8.195313 4.308594zm-60.710937-153.609375c-6.207031 0-11.25 5.050781-11.25 11.253906v94.40625c0 6.207032 5.042969 11.253906 11.25 11.253906h37.078125c1.289062 0 2.5.625 3.25 1.671876l18.683594 26.054687c.898437 1.25 2.496093 1.253906 3.394531 0l18.683593-26.054687c.75-1.046876 1.960938-1.671876 3.25-1.671876h37.078126c6.203124 0 11.253906-5.046874 11.253906-11.253906v-94.40625c0-6.203125-5.050782-11.253906-11.253906-11.253906zm0 0" fill="#3762cc"/><path d="m131.980469 139.019531h-103c-4.417969 0-8-3.582031-8-8s3.582031-8 8-8h103c4.417969 0 8 3.582031 8 8s-3.582031 8-8 8zm0 0" fill="#e0ebfc"/><path d="m131.980469 179.019531h-103c-4.417969 0-8-3.582031-8-8s3.582031-8 8-8h103c4.417969 0 8 3.582031 8 8s-3.582031 8-8 8zm0 0" fill="#e0ebfc"/><path d="m467.941406 88.5625h-121.414062c-8.425782 0-15.253906 6.832031-15.253906 15.253906v94.40625c0 8.425782 6.828124 15.253906 15.253906 15.253906h37.074218l18.6875 26.058594c2.523438 3.519532 7.367188 3.519532 9.890626 0l18.6875-26.058594h37.074218c8.425782 0 15.253906-6.828124 15.253906-15.253906v-94.40625c0-8.421875-6.832031-15.253906-15.253906-15.253906zm0 0" fill="#6bdddd"/><path d="m407.230469 246.171875c-3.242188 0-6.230469-1.570313-8.195313-4.308594l-17.488281-24.386719h-35.023437c-10.617188 0-19.253907-8.632812-19.253907-19.253906v-94.40625c0-10.617187 8.636719-19.253906 19.253907-19.253906h121.417968c10.613282 0 19.25 8.636719 19.25 19.253906v94.40625c0 10.621094-8.636718 19.253906-19.25 19.253906h-35.019531l-17.492187 24.386719c-1.964844 2.738281-4.953126 4.308594-8.199219 4.308594zm-60.707031-153.609375c-6.207032 0-11.253907 5.050781-11.253907 11.253906v94.40625c0 6.207032 5.046875 11.253906 11.253907 11.253906h37.078124c1.289063 0 2.5.625 3.25 1.671876l18.683594 26.054687c.902344 1.253906 2.496094 1.25 3.394532 0l18.683593-26.054687c.75-1.046876 1.960938-1.671876 3.25-1.671876h37.078125c6.203125 0 11.25-5.046874 11.25-11.253906v-94.40625c0-6.203125-5.046875-11.253906-11.25-11.253906zm0 0" fill="#3762cc"/><path d="m458.054688 139.019531h-103c-4.417969 0-8-3.582031-8-8s3.582031-8 8-8h103c4.417968 0 8 3.582031 8 8s-3.582032 8-8 8zm0 0" fill="#e0ebfc"/><path d="m458.054688 179.019531h-103c-4.417969 0-8-3.582031-8-8s3.582031-8 8-8h103c4.417968 0 8 3.582031 8 8s-3.582032 8-8 8zm0 0" fill="#e0ebfc"/><path d="m175.523438 423.472656c.527343-1.136718-.304688-2.4375-1.558594-2.4375h-19.570313c-1.230469 0-2.222656.996094-2.222656 2.222656v5.5625c0 2.054688.875 4.054688 2.5 5.691407 1.941406 1.957031 4.792969 3.222656 7.917969 3.582031h3.277344c1.75 0 3.34375-1.019531 4.082031-2.609375zm0 0" fill="#f9a7a7"/><path d="m165.863281 440.09375h-3.273437c-.078125 0-.152344-.003906-.226563-.015625-3.628906-.414063-6.863281-1.890625-9.117187-4.15625-1.984375-2.003906-3.078125-4.527344-3.078125-7.101563v-5.5625c0-2.328124 1.894531-4.222656 4.222656-4.222656h19.574219c1.273437 0 2.445312.640625 3.132812 1.714844.683594 1.074219.773438 2.40625.238282 3.5625l-5.578126 12.015625c-1.054687 2.285156-3.371093 3.765625-5.894531 3.765625zm-3.15625-4h3.15625c.972657 0 1.863281-.570312 2.269531-1.449219l5.386719-11.613281h-19.125c-.125 0-.222656.101562-.222656.226562v5.558594c0 1.535156.664063 3.015625 1.917969 4.285156 1.566406 1.582032 3.976562 2.667969 6.617187 2.992188zm12.816407-12.621094h.019531zm0 0" fill="#3762cc"/><path d="m320.328125 423.472656c-.527344-1.136718.304687-2.4375 1.558594-2.4375h19.570312c1.230469 0 2.226563.996094 2.226563 2.222656v5.5625c0 2.054688-.878906 4.054688-2.5 5.691407-1.945313 1.957031-4.796875 3.222656-7.921875 3.582031h-3.277344c-1.75 0-3.34375-1.019531-4.082031-2.609375zm0 0" fill="#f9a7a7"/><path d="m333.265625 440.09375h-3.277344c-2.519531 0-4.835937-1.476562-5.894531-3.765625l-5.574219-12.015625c-.539062-1.15625-.453125-2.488281.234375-3.558594.6875-1.078125 1.859375-1.71875 3.132813-1.71875h19.574219c2.328124 0 4.222656 1.894532 4.222656 4.222656v5.5625c0 2.574219-1.09375 5.097657-3.082032 7.097657-2.25 2.269531-5.484374 3.746093-9.113281 4.160156-.074219.011719-.148437.015625-.222656.015625zm-10.929687-17.058594 5.382812 11.609375c.410156.878907 1.300781 1.449219 2.269531 1.449219h3.15625c2.644531-.324219 5.050781-1.410156 6.621094-2.988281 1.257813-1.269531 1.921875-2.746094 1.921875-4.285157v-5.558593c0-.125-.101562-.226563-.226562-.226563zm-.191407-.40625" fill="#3762cc"/></svg>